<svg width="286" height="100" viewBox="0 0 286 100" fill="none" xmlns="http://www.w3.org/2000/svg">
<rect width="286" height="100" fill="#0D101B"/>
<g clip-path="url(#clip0_1515_1199)">
<path fill-rule="evenodd" clip-rule="evenodd" d="M84.5257 68.767C78.3193 78.5219 67.4105 84.9985 54.9976 84.9985C35.6812 84.9985 20 69.314 20 49.9976C20 30.6812 35.6812 15 54.9976 15C67.4105 15 78.3193 21.4733 84.5257 31.2315C81.7477 29.8342 78.6095 29.0604 75.2911 29.0604C63.7353 29.0604 54.3506 38.4418 54.3506 49.9976C54.3506 61.5534 63.7353 70.9381 75.2911 70.9381C78.6095 70.9381 81.7477 70.1644 84.5257 68.767Z" fill="#2C99F1"/>
<path fill-rule="evenodd" clip-rule="evenodd" d="M73.9441 79.42C70.3858 80.7903 66.5198 81.5431 62.4794 81.5431C44.8514 81.5431 30.5397 67.2302 30.5397 49.6025C30.5397 31.9749 44.8514 17.6619 62.4794 17.6619C65.3458 17.6619 68.1244 18.041 70.7659 18.7505C76.3976 21.6012 81.1549 25.9323 84.5252 31.231C81.7458 29.8319 78.6072 29.0592 75.2894 29.0592C63.7332 29.0592 54.3509 38.4417 54.3509 49.9979C54.3509 61.5541 63.7332 70.9366 75.2894 70.9366C78.6072 70.9366 81.7458 70.1621 84.5252 68.7647C81.809 73.0344 78.1921 76.6759 73.9441 79.42Z" fill="#1C5DE0"/>
<path fill-rule="evenodd" clip-rule="evenodd" d="M78.761 75.6775C75.9746 76.6416 72.9836 77.1651 69.8712 77.1651C54.8572 77.1651 42.6678 64.9752 42.6678 49.9618C42.6678 34.9465 54.8572 22.7585 69.8712 22.7585C72.9371 22.7585 75.8851 23.2658 78.6373 24.2046C80.8919 26.2735 82.8747 28.6349 84.5252 31.231C81.7458 29.8319 78.6072 29.0592 75.2895 29.0592C63.7333 29.0592 54.3509 38.4417 54.3509 49.9979C54.3509 61.5541 63.7333 70.9366 75.2895 70.9366C78.6072 70.9366 81.7458 70.1621 84.5252 68.7647C82.9052 71.3103 80.9648 73.6338 78.761 75.6775Z" fill="#043DA0"/>
<path fill-rule="evenodd" clip-rule="evenodd" d="M23.2052 64.6198C27.7508 71.103 34.6709 75.2451 42.4148 75.2451C46.757 75.2451 50.8457 73.9411 54.3942 71.6466C58.2395 73.1107 62.4116 73.9078 66.7704 73.9078C73.1269 73.9078 79.0899 72.2102 84.2258 69.2321C77.9727 78.7302 67.2106 85 54.9978 85C40.9007 85 28.738 76.6458 23.2052 64.6198Z" fill="#2FCDFF"/>
<path fill-rule="evenodd" clip-rule="evenodd" d="M42.4147 58.1827C43.9957 58.1827 45.2791 59.4681 45.2791 61.0532C45.2791 62.6365 43.9957 63.922 42.4147 63.922C40.8337 63.922 39.5503 62.6365 39.5503 61.0532C39.5503 59.4681 40.8337 58.1827 42.4147 58.1827ZM80.4205 52.2593C81.9422 52.2593 83.1776 53.4851 83.1776 54.9962C83.1776 56.5073 81.9422 57.7331 80.4205 57.7331C78.8985 57.7331 77.6631 56.5073 77.6631 54.9962C77.6631 53.4851 78.8985 52.2593 80.4205 52.2593ZM67.8415 51.0154C68.6025 51.0154 69.2203 51.6581 69.2203 52.4488C69.2203 53.2378 68.6025 53.8805 67.8415 53.8805C67.0808 53.8805 66.463 53.2378 66.463 52.4488C66.463 51.6581 67.0808 51.0154 67.8415 51.0154ZM66.438 43.413C66.0721 30.6508 55.5944 20.3999 42.7415 20.3999C39.5882 20.3999 36.5777 21.0173 33.8256 22.142C39.7043 17.6593 47.0426 15 54.997 15C69.8867 15 82.6171 24.3175 87.6687 37.439C87.8371 37.7387 87.9828 38.0672 88.0992 38.4175C88.7382 40.3474 88.2551 42.2449 87.0211 42.6529C86.1614 42.9381 85.1626 42.4254 84.4203 41.4361C85.4219 44.9547 84.2979 48.3831 81.8115 49.2064C79.2284 50.0621 76.1464 47.7856 74.9338 44.1261L74.8677 43.9148C75.0309 46.2528 73.5925 48.347 71.4678 48.7243C69.1755 49.1305 66.947 47.3848 66.4942 44.8284C66.409 44.3481 66.3927 43.8715 66.438 43.413Z" fill="#2FCDFF"/>
</g>
<path d="M117.048 38.5947C118.46 38.5947 119.605 39.7396 119.605 41.152C119.605 42.5644 118.46 43.7093 117.048 43.7093H112.661V61.6107C112.661 63.3736 111.232 64.8027 109.469 64.8027C107.706 64.8027 106.277 63.3736 106.277 61.6107V43.7093H101.891C100.478 43.7093 99.3333 42.5644 99.3333 41.152C99.3333 39.7396 100.478 38.5947 101.891 38.5947H117.048Z" fill="white"/>
<path d="M131.284 65.1013C129.467 65.1013 127.849 64.7902 126.431 64.168C125.012 63.5458 123.892 62.6996 123.071 61.6293C122.963 61.4859 122.862 61.3403 122.766 61.1926C121.762 59.6344 123.269 57.9707 125.123 57.9707H125.912C127.098 57.9707 128.058 59.0141 129.007 59.7253C129.604 60.1733 130.338 60.3973 131.209 60.3973C132.006 60.3973 132.615 60.248 133.039 59.9493C133.487 59.6258 133.711 59.2151 133.711 58.7173C133.711 58.12 133.399 57.6844 132.777 57.4107C132.155 57.112 131.147 56.7884 129.753 56.44C128.26 56.0916 127.015 55.7307 126.02 55.3573C125.024 54.9591 124.166 54.3493 123.444 53.528C122.722 52.6818 122.361 51.5493 122.361 50.1307C122.361 48.936 122.685 47.8533 123.332 46.8827C124.004 45.8871 124.975 45.1031 126.244 44.5307C127.538 43.9582 129.069 43.672 130.836 43.672C133.449 43.672 135.503 44.3191 136.996 45.6133C137.681 46.1976 138.235 46.8681 138.656 47.6249C139.516 49.168 138.071 50.7653 136.305 50.7653H135.737C134.576 50.7653 133.659 49.758 132.74 49.048C132.217 48.6249 131.52 48.4133 130.649 48.4133C129.903 48.4133 129.33 48.5627 128.932 48.8613C128.534 49.1351 128.335 49.5209 128.335 50.0187C128.335 50.616 128.646 51.064 129.268 51.3627C129.915 51.6613 130.911 51.96 132.255 52.2587C133.798 52.6569 135.055 53.0551 136.025 53.4533C136.996 53.8267 137.842 54.4489 138.564 55.32C139.311 56.1662 139.696 57.3111 139.721 58.7547C139.721 59.9742 139.373 61.0693 138.676 62.04C138.004 62.9858 137.021 63.7324 135.727 64.28C134.457 64.8276 132.976 65.1013 131.284 65.1013Z" fill="white"/>
<path d="M161.006 43.9707C162.769 43.9707 164.198 45.3998 164.198 47.1627V60.7707C164.198 62.9975 162.392 64.8027 160.166 64.8027H157.814V61.9653C157.167 62.8862 156.283 63.6329 155.163 64.2053C154.068 64.7529 152.848 65.0267 151.504 65.0267C149.911 65.0267 148.505 64.6782 147.286 63.9813C146.066 63.2596 145.12 62.2267 144.448 60.8827C143.776 59.5387 143.44 57.9582 143.44 56.1413V47.144C143.44 45.3914 144.861 43.9707 146.614 43.9707C148.366 43.9707 149.787 45.3914 149.787 47.144V55.2827C149.787 56.6764 150.148 57.7591 150.87 58.5307C151.591 59.3022 152.562 59.688 153.782 59.688C155.026 59.688 156.009 59.3022 156.731 58.5307C157.453 57.7591 157.814 56.6764 157.814 55.2827V47.1627C157.814 45.3998 159.243 43.9707 161.006 43.9707Z" fill="white"/>
<path d="M181.477 43.7467C183.916 43.7467 185.857 44.5431 187.301 46.136C188.769 47.704 189.503 49.8693 189.503 52.632V61.6293C189.503 63.3819 188.082 64.8027 186.33 64.8027C184.577 64.8027 183.157 63.3819 183.157 61.6293V53.4907C183.157 52.0969 182.796 51.0142 182.074 50.2427C181.352 49.4711 180.381 49.0853 179.162 49.0853C177.942 49.0853 176.972 49.4711 176.25 50.2427C175.528 51.0142 175.167 52.0969 175.167 53.4907V61.6107C175.167 63.3736 173.738 64.8027 171.975 64.8027C170.212 64.8027 168.783 63.3736 168.783 61.6107V47.1484C168.783 45.3934 170.206 43.9707 171.961 43.9707H175.167V46.7333C175.814 45.8124 176.685 45.0907 177.781 44.568C178.876 44.0204 180.108 43.7467 181.477 43.7467Z" fill="white"/>
<path d="M192.67 54.3493C192.67 52.2089 193.068 50.3298 193.865 48.712C194.686 47.0942 195.794 45.8498 197.187 44.9787C198.581 44.1076 200.137 43.672 201.854 43.672C203.323 43.672 204.604 43.9707 205.699 44.568C206.819 45.1653 207.678 45.9493 208.275 46.92V43.9707H211.548C213.267 43.9707 214.659 45.3636 214.659 47.0818V64.8027H211.225C209.596 64.8027 208.275 63.4822 208.275 61.8533C207.653 62.824 206.782 63.608 205.662 64.2053C204.567 64.8027 203.285 65.1013 201.817 65.1013C200.124 65.1013 198.581 64.6658 197.187 63.7947C195.794 62.8987 194.686 61.6418 193.865 60.024C193.068 58.3813 192.67 56.4898 192.67 54.3493ZM208.275 54.3867C208.275 52.7938 207.827 51.5369 206.931 50.616C206.06 49.6951 204.99 49.2347 203.721 49.2347C202.451 49.2347 201.369 49.6951 200.473 50.616C199.602 51.512 199.166 52.7564 199.166 54.3493C199.166 55.9422 199.602 57.2116 200.473 58.1573C201.369 59.0782 202.451 59.5387 203.721 59.5387C204.99 59.5387 206.06 59.0782 206.931 58.1573C207.827 57.2364 208.275 55.9796 208.275 54.3867Z" fill="white"/>
<path d="M245.859 43.7467C248.448 43.7467 250.501 44.5307 252.019 46.0987C253.562 47.6667 254.334 49.8444 254.334 52.632V61.6293C254.334 63.3819 252.913 64.8027 251.161 64.8027C249.408 64.8027 247.987 63.3819 247.987 61.6293V53.4907C247.987 52.1467 247.626 51.1138 246.905 50.392C246.208 49.6453 245.237 49.272 243.993 49.272C242.748 49.272 241.765 49.6453 241.043 50.392C240.346 51.1138 239.998 52.1467 239.998 53.4907V61.6293C239.998 63.3819 238.577 64.8027 236.825 64.8027C235.072 64.8027 233.651 63.3819 233.651 61.6293V53.4907C233.651 52.1467 233.29 51.1138 232.569 50.392C231.872 49.6453 230.901 49.272 229.657 49.272C228.412 49.272 227.429 49.6453 226.707 50.392C226.01 51.1138 225.662 52.1467 225.662 53.4907V61.6107C225.662 63.3736 224.233 64.8027 222.47 64.8027C220.707 64.8027 219.278 63.3736 219.278 61.6107V44.3791C219.278 44.1535 219.461 43.9707 219.686 43.9707H223.049C224.492 43.9707 225.662 45.1407 225.662 46.584C226.309 45.7129 227.155 45.0284 228.201 44.5307C229.246 44.008 230.428 43.7467 231.747 43.7467C233.315 43.7467 234.709 44.0827 235.929 44.7547C237.173 45.4267 238.144 46.3849 238.841 47.6293C239.562 46.4844 240.546 45.5511 241.79 44.8293C243.034 44.1076 244.391 43.7467 245.859 43.7467Z" fill="white"/>
<path d="M262.01 41.8053C260.89 41.8053 259.969 41.4818 259.247 40.8347C258.55 40.1627 258.202 39.3413 258.202 38.3707C258.202 37.3751 258.55 36.5538 259.247 35.9067C259.969 35.2347 260.89 34.8987 262.01 34.8987C263.105 34.8987 264.001 35.2347 264.698 35.9067C265.419 36.5538 265.78 37.3751 265.78 38.3707C265.78 39.3413 265.419 40.1627 264.698 40.8347C264.001 41.4818 263.105 41.8053 262.01 41.8053ZM261.991 43.9707C263.754 43.9707 265.183 45.3998 265.183 47.1627V61.6107C265.183 63.3736 263.754 64.8027 261.991 64.8027C260.228 64.8027 258.799 63.3736 258.799 61.6107V47.1627C258.799 45.3998 260.228 43.9707 261.991 43.9707Z" fill="white"/>
<defs>
<clipPath id="clip0_1515_1199">
<rect width="70" height="70" fill="white" transform="translate(20 15)"/>
</clipPath>
</defs>
</svg>
