<svg width="100" height="100" viewBox="0 0 100 100" fill="none" xmlns="http://www.w3.org/2000/svg">
<rect width="100" height="100" fill="#0D101B"/>
<g clip-path="url(#clip0_1515_1203)">
<path fill-rule="evenodd" clip-rule="evenodd" d="M79.5257 68.767C73.3193 78.5219 62.4105 84.9985 49.9976 84.9985C30.6812 84.9985 15 69.314 15 49.9976C15 30.6812 30.6812 15 49.9976 15C62.4105 15 73.3193 21.4733 79.5257 31.2315C76.7477 29.8342 73.6095 29.0604 70.2911 29.0604C58.7353 29.0604 49.3506 38.4418 49.3506 49.9976C49.3506 61.5534 58.7353 70.9381 70.2911 70.9381C73.6095 70.9381 76.7477 70.1644 79.5257 68.767Z" fill="#2C99F1"/>
<path fill-rule="evenodd" clip-rule="evenodd" d="M68.9441 79.42C65.3859 80.7903 61.5198 81.5431 57.4794 81.5431C39.8514 81.5431 25.5397 67.2302 25.5397 49.6025C25.5397 31.9749 39.8514 17.6619 57.4794 17.6619C60.3458 17.6619 63.1244 18.041 65.7659 18.7505C71.3976 21.6012 76.1549 25.9323 79.5252 31.231C76.7458 29.8319 73.6072 29.0592 70.2894 29.0592C58.7332 29.0592 49.3509 38.4417 49.3509 49.9979C49.3509 61.5541 58.7332 70.9366 70.2894 70.9366C73.6072 70.9366 76.7458 70.1621 79.5252 68.7647C76.809 73.0344 73.1921 76.6759 68.9441 79.42Z" fill="#1C5DE0"/>
<path fill-rule="evenodd" clip-rule="evenodd" d="M73.761 75.6775C70.9746 76.6416 67.9836 77.1651 64.8712 77.1651C49.8572 77.1651 37.6679 64.9752 37.6679 49.9618C37.6679 34.9465 49.8572 22.7585 64.8712 22.7585C67.9371 22.7585 70.8851 23.2658 73.6374 24.2046C75.8919 26.2735 77.8747 28.6349 79.5252 31.231C76.7458 29.8319 73.6072 29.0592 70.2895 29.0592C58.7333 29.0592 49.3509 38.4417 49.3509 49.9979C49.3509 61.5541 58.7333 70.9366 70.2895 70.9366C73.6072 70.9366 76.7458 70.1621 79.5252 68.7647C77.9052 71.3103 75.9648 73.6338 73.761 75.6775Z" fill="#043DA0"/>
<path fill-rule="evenodd" clip-rule="evenodd" d="M18.2052 64.6198C22.7508 71.103 29.6709 75.2451 37.4148 75.2451C41.757 75.2451 45.8458 73.9411 49.3942 71.6466C53.2395 73.1107 57.4116 73.9078 61.7704 73.9078C68.1269 73.9078 74.0899 72.2102 79.2258 69.2321C72.9727 78.7302 62.2106 85 49.9978 85C35.9007 85 23.738 76.6458 18.2052 64.6198Z" fill="#2FCDFF"/>
<path fill-rule="evenodd" clip-rule="evenodd" d="M37.4147 58.1827C38.9957 58.1827 40.2791 59.4681 40.2791 61.0532C40.2791 62.6365 38.9957 63.922 37.4147 63.922C35.8337 63.922 34.5503 62.6365 34.5503 61.0532C34.5503 59.4681 35.8337 58.1827 37.4147 58.1827ZM75.4205 52.2593C76.9422 52.2593 78.1776 53.4851 78.1776 54.9962C78.1776 56.5073 76.9422 57.7331 75.4205 57.7331C73.8985 57.7331 72.6631 56.5073 72.6631 54.9962C72.6631 53.4851 73.8985 52.2593 75.4205 52.2593ZM62.8415 51.0154C63.6025 51.0154 64.2203 51.6581 64.2203 52.4488C64.2203 53.2378 63.6025 53.8805 62.8415 53.8805C62.0808 53.8805 61.463 53.2378 61.463 52.4488C61.463 51.6581 62.0808 51.0154 62.8415 51.0154ZM61.438 43.413C61.0721 30.6508 50.5945 20.3999 37.7415 20.3999C34.5882 20.3999 31.5778 21.0173 28.8256 22.142C34.7043 17.6593 42.0426 15 49.9971 15C64.8867 15 77.6171 24.3175 82.6687 37.439C82.8371 37.7387 82.9828 38.0672 83.0993 38.4175C83.7382 40.3474 83.2551 42.2449 82.0211 42.6529C81.1614 42.9381 80.1626 42.4254 79.4203 41.4361C80.4219 44.9547 79.2979 48.3831 76.8115 49.2064C74.2284 50.0621 71.1464 47.7856 69.9338 44.1261L69.8677 43.9148C70.0309 46.2528 68.5926 48.347 66.4678 48.7243C64.1755 49.1305 61.947 47.3848 61.4942 44.8284C61.409 44.3481 61.3927 43.8715 61.438 43.413Z" fill="#2FCDFF"/>
</g>
<defs>
<clipPath id="clip0_1515_1203">
<rect width="70" height="70" fill="white" transform="translate(15 15)"/>
</clipPath>
</defs>
</svg>
